# AST/ASF file generated using VICON BodyLanguage
# -----------------------------------------------
:version 1.10
:name VICON
:units
  mass 1.0
  length 0.45
  angle deg
:documentation
   .ast/.asf automatically generated from VICON data using
   VICON BodyBuilder and BodyLanguage model FoxedUp or BRILLIANT.MOD
:root
   order TX TY TZ RX RY RZ
   axis XYZ
   position 0 0 0  
   orientation 0 -0 0 
:bonedata
  begin
     id 1 
     name lhipjoint
     direction 0.432694 -0.693742 0.575759 
     length 2.19277 
     axis 0 -0 0  XYZ
  end
  begin
     id 2 
     name lfemur
     direction 0.34202 -0.939693 0  
     length 6.69022  
     axis 0 -0 20  XYZ
    dof rx ry rz
    limits (-160.0 20.0)
           (-70.0 70.0)
           (-60.0 70.0)
  end
  begin
     id 3 
     name ltibia
     direction 0.34202 -0.939693 0   
     length 6.50337   
     axis 0 -0 20   XYZ
    dof rx
    limits (-10.0 170.0)
  end
  begin
     id 4 
     name lfoot
     direction 0.158999 -0.435969 0.885805   
     length 2.70564   
     axis -90 -1.13533e-015 20   XYZ
    dof rx rz
    limits (-45.0 90.0)
           (-70.0 20.0)
  end
  begin
     id 5 
     name ltoes
     direction -0.00592919 0.00964381 0.999936   
     length 1.29929   
     axis -90 -1.13533e-015 20   XYZ
    dof rx
    limits (-90.0 20.0)
  end
  begin
     id 6 
     name rhipjoint
     direction -0.414359 -0.700339 0.581234   
     length 2.17212  
     axis 0 -0 0  XYZ 
  end
  begin
     id 7 
     name rfemur
     direction -0.34202 -0.939693 0   
     length 7.17659   
     axis 0 -0 -20   XYZ
    dof rx ry rz
    limits (-160.0 20.0)
           (-70.0 70.0)
           (-70.0 60.0)
  end
  begin
     id 8 
     name rtibia
     direction -0.34202 -0.939693 0   
     length 6.36669   
     axis 0 -0 -20   XYZ
    dof rx
    limits (-10.0 170.0)
 end
 begin
     id 9 
     name rfoot
     direction -0.137064 -0.37658 0.916188   
     length 2.22351  
     axis -90 1.13533e-015 -20   XYZ
    dof rx rz
    limits (-45.0 90.0)
           (-20.0 70.0)
  end
  begin
     id 10 
     name rtoes
     direction -0.000784077 -0.00289101 0.999996   
     length 1.09522   
     axis -90 1.13533e-015 -20   XYZ
    dof rx
    limits (-90.0 20.0)
  end
  begin
     id 11 
     name lowerback
     direction -0.0176242 0.984912 -0.172157   
     length 1.65301   
     axis 0 -0 0   XYZ
    dof rx ry rz
    limits (-20.0 45.0)
           (-30.0 30.0)
           (-30.0 30.0)
  end
  begin
     id 12 
     name upperback
     direction -0.00218128 0.998776 -0.0494072   
     length 1.67776   
     axis 0 -0 0   XYZ
    dof rx ry rz
    limits (-20.0 45.0)
           (-30.0 30.0)
           (-30.0 30.0)
  end
  begin
     id 13 
     name thorax
     direction 0.00544186 0.999658 0.0255711   
     length 1.72293   
     axis 0 -0 0   XYZ
    dof rx ry rz
    limits (-20.0 45.0)
           (-30.0 30.0)
           (-30.0 30.0)
  end
  begin
     id 14 
     name lowerneck
     direction -0.105325 0.983841 0.144785   
     length 2.14226   
     axis 0 -0 0   XYZ
    dof rx ry rz
    limits (-20.0 45.0)
           (-30.0 30.0)
           (-30.0 30.0)
  end
  begin
     id 15 
     name upperneck
     direction 0.0547957 0.988053 -0.144041   
     length 2.17508   
     axis 0 -0 0   XYZ
    dof rx ry rz
    limits (-20.0 45.0)
           (-30.0 30.0)
           (-30.0 30.0)
  end
  begin
     id 16
     name head
     direction 0.0247488 0.997534 -0.0656813  
     length 2.20048  
     axis 0 -0 0   XYZ
    dof rx ry rz
    limits (-20.0 45.0)
           (-30.0 30.0)
           (-30.0 30.0)
  end
  begin
     id 17 
     name lclavicle
     direction 0.820559 0.567247 -0.0701026  
     length 4.09615  
     axis 0 -0 0   XYZ
    dof ry rz
    limits (-20.0 10.0)
           (0.0 20.0)
  end
  begin
     id 18 
     name lhumerus
     direction 0.999977 -0.0067566 -9.96392e-005   
     length 4.59333   
     axis -180 -30 -90   XYZ
    dof rx ry rz
    limits (-60.0 90.0)
           (-90.0 90.0)
           (-90.0 90.0)
  end
  begin
     id 19
     name lradius
     direction 1 -4.48982e-011 -2.53425e-027   
     length 2.81151   
     axis -180 -30 -90   XYZ
    dof rx
    limits (-10.0 170.0)
  end
  begin
     id 20
     name lwrist
     direction 1 -4.48939e-011 -7.39254e-028   
     length 1.40576   
     axis 2.56395e-016 90 90   XYZ
    dof ry
    limits (-180.0 0.0)
 end
  begin
     id 21 
     name lhand
     direction 1 -4.48939e-011 -1.47851e-027   
     length 0.895651   
     axis 9.43423e-016 90 90   XYZ
    dof rx rz
    limits (-90.0 90.0)
           (-45.0 45.0)
  end
  begin
     id 22 
     name lfingers
     direction 1 -4.48978e-011 -2.95702e-027   
     length 0.722097   
     axis 1.88685e-015 90 90   XYZ
    dof rx
    limits (0.0 90.0)
  end
  begin
     id 23
     name lthumb
     direction 0.707107 -6.34931e-011 0.707107   
     length 1.03679   
     axis -90 45 -9.86935e-015   XYZ
    dof rx rz
    limits (-45.0 45.0)
           (-45.0 45.0)
  end
  begin
     id 24 
     name rclavicle
     direction -0.831414 0.553102 -0.0531864   
     length 4.24872  
     axis 0 -0 0   XYZ 
    dof ry rz
    limits (-10.0 20.0)
           (-20.0 0.0)
  end
  begin
     id 25 
     name rhumerus
     direction -0.999916 -0.000939607 0.0129331  
     length 4.74834   
     axis -180 30 90   XYZ
    dof rx ry rz
    limits (-90.0 60.0)
           (-90.0 90.0)
           (-90.0 90.0)
  end
  begin
     id 26 
     name rradius
     direction -1 -4.48956e-011 -1.31752e-027   
     length 2.79907   
     axis -180 30 90   XYZ
    dof rx
    limits (-10.0 170.0)
  end
  begin
     id 27 
     name rwrist
     direction -1 -4.4897e-011 -7.39254e-028   
     length 1.39954   
     axis 2.56395e-016 -90 -90   XYZ
    dof ry
    limits (-180.0 0.0)
  end
  begin
     id 28
     name rhand
     direction -0.999997 -0.00250697 0.000800838   
     length 0.953304   
     axis 9.43423e-016 -90 -90   XYZ
    dof rx rz
    limits (-90.0 90.0)
           (-45.0 45.0)
  end
  begin
     id 29
     name rfingers
     direction -1 -4.48954e-011 -2.95702e-027   
     length 0.763342   
     axis 1.88685e-015 -90 -90   XYZ
    dof rx
    limits (0.0 90.0)
  end
  begin
     id 30
     name rthumb
     direction -0.709701 -0.00217037 0.7045   
     length 1.10115   
     axis -90 -45 9.86935e-015   XYZ
    dof rx rz
    limits (-45.0 45.0)
           (-45.0 45.0)
  end
:hierarchy
  begin
    root lhipjoint rhipjoint lowerback
    lhipjoint lfemur
    lfemur ltibia
    ltibia lfoot
    lfoot ltoes
    rhipjoint rfemur
    rfemur rtibia
    rtibia rfoot
    rfoot rtoes
    lowerback upperback
    upperback thorax
    thorax lowerneck lclavicle rclavicle
    lowerneck upperneck
    upperneck head
    lclavicle lhumerus
    lhumerus lradius
    lradius lwrist
    lwrist lhand lthumb
    lhand lfingers
    rclavicle rhumerus
    rhumerus rradius
    rradius rwrist
    rwrist rhand rthumb
    rhand rfingers
  end

#!OML:ASF G:\ViconDB\ViconDB\414\test\team2\shane.ASF
:FULLY-SPECIFIED
:DEGREES
16
root 3.33549 16.4658 -34.6418 -7.1775 -5.61745 -5.68722
lowerback 8.23702 0.439437 7.04464
upperback 5.37891 1.02689 3.83454
thorax 1.03829 0.622763 -0.0484403
lowerneck -17.5434 -3.81897 -5.10057
upperneck 23.3071 -4.41818 1.99041
head 10.5459 -2.24049 0.934379
rclavicle 4.27387e-014 6.36111e-014
rhumerus -28.9892 4.97466 -90.1959
rradius 29.8016
rwrist 37.8402
rhand -29.4554 -13.6008
rfingers 7.12502
rthumb -2.79151 -43.5623
lclavicle 4.27387e-014 6.36111e-014
lhumerus -38.167 -24.6949 99.8564
lradius 27.6608
lwrist -15.723
lhand -35.7223 5.82678
lfingers 7.12502
lthumb -8.84187 35.6215
rfemur 13.9265 -13.0504 21.6367
rtibia 23.7274
rfoot -30.4067 7.28151
rtoes -5.42636
lfemur -14.6029 11.3973 -0.252825
ltibia 63.0277
lfoot -23.404 -15.1242
ltoes -12.4741
17
root 3.3218 16.4752 -34.5767 -7.04022 -5.94792 -5.45393
lowerback 8.3421 0.48893 6.80367
upperback 5.27633 1.09421 3.7322
thorax 0.871174 0.646187 -0.0291095
lowerneck -17.4506 -3.78475 -4.98185
upperneck 23.3243 -4.34849 1.75581
head 10.523 -2.22767 0.842523
rclavicle 6.36111e-015 1.66979e-014
rhumerus -29.2793 5.92906 -90.7324
rradius 31.5118
rwrist 36.2268
rhand -29.5962 -13.5523
rfingers 7.12502
rthumb -2.92754 -43.5119
lclavicle 6.36111e-015 1.66979e-014
lhumerus -38.9041 -24.5903 99.763
lradius 27.9955
lwrist -15.4812
lhand -35.4138 5.8152
lfingers 7.12502
lthumb -8.54411 35.6223
rfemur 14.1316 -12.899 21.3588
rtibia 23.384
rfoot -30.1031 7.6854
rtoes -5.27679
lfemur -15.0381 11.6781 -0.734582
ltibia 62.2281
lfoot -23.4736 -15.1799
ltoes -12.0764
18
root 3.31524 16.478 -34.5004 -6.8923 -6.50764 -5.3227
lowerback 8.2739 0.63299 6.868
upperback 5.27993 1.28119 3.61594
thorax 0.926579 0.743951 -0.197157
lowerneck -17.2536 -3.88596 -5.14559
upperneck 22.9139 -4.46893 1.84075
head 10.3474 -2.28734 0.887063
rclavicle 3.39922e-014 3.10104e-014
rhumerus -29.9249 8.07543 -91.4718
rradius 34.2408
rwrist 32.9966
rhand -29.4475 -14.0822
rfingers 7.12502
rthumb -2.78387 -44.0438
lclavicle 3.39922e-014 3.10104e-014
lhumerus -39.5145 -24.4868 99.7409
lradius 28.2594
lwrist -14.9661
lhand -35.383 5.69475
lfingers 7.12502
lthumb -8.51444 35.5031
rfemur 14.3959 -12.5086 21.2119
rtibia 23.0348
rfoot -29.8944 7.845
rtoes -6.18798
lfemur -15.3906 12.2225 -1.14108
ltibia 61.2048
lfoot -23.7407 -14.8884
ltoes -12.6731
19
root 3.30486 16.491 -34.4294 -6.76091 -6.91014 -5.22644
lowerback 8.43913 0.702473 6.76737
upperback 5.21751 1.38632 3.57685
thorax 0.773328 0.789488 -0.193543
lowerneck -16.918 -3.90858 -5.22561
upperneck 22.0412 -4.4856 1.86153
head 9.97336 -2.29905 0.914005
rclavicle -2.56432e-014 -2.70347e-014
rhumerus -30.5875 9.52437 -92.0836
rradius 37.1029
rwrist 30.5255
rhand -29.0296 -14.2188
rfingers 7.12502
rthumb -2.38033 -44.1853
lclavicle -2.56432e-014 -2.70347e-014
lhumerus -40.2402 -24.2769 99.7349
lradius 28.5733
lwrist -14.6783
lhand -35.3892 5.72487
lfingers 7.12502
lthumb -8.52038 35.533
rfemur 14.6762 -11.8964 21.2594
rtibia 22.5978
rfoot -29.4311 7.556
rtoes -7.57056
lfemur -15.6425 12.5481 -1.51255
ltibia 59.993
lfoot -24.1049 -14.6099
ltoes -12.0413
20
root 3.2956 16.5109 -34.3535 -6.55265 -7.3044 -4.99608
lowerback 8.54768 0.772091 6.64318
upperback 5.15172 1.48384 3.36111
thorax 0.651068 0.834328 -0.358652
lowerneck -16.6618 -3.94909 -5.16859
upperneck 21.0301 -4.59209 2.02145
head 9.57343 -2.32383 0.95397
rclavicle 1.19271e-014 -3.18055e-014
rhumerus -31.8425 12.0193 -93.0688
rradius 41.2281
rwrist 26.1594
rhand -28.7272 -14.0073
rfingers 7.12502
rthumb -2.08826 -43.9768
lclavicle 1.19271e-014 -3.18055e-014
lhumerus -40.9329 -23.9241 99.3856
lradius 28.9804
lwrist -14.9001
lhand -35.2123 5.84858
lfingers 7.12502
lthumb -8.34965 35.6636
rfemur 14.9003 -11.7228 20.9288
rtibia 22.0798
rfoot -28.9984 8.16237
rtoes -7.35036
lfemur -16.0943 13.0844 -2.0504
ltibia 58.6044
lfoot -24.2127 -14.4674
ltoes -12.4065
21
root 3.28986 16.5291 -34.2754 -6.4119 -7.71129 -4.65394
lowerback 8.71392 0.872473 6.40811
upperback 5.09807 1.61799 3.17255
thorax 0.50747 0.894439 -0.438232
lowerneck -16.4801 -3.98258 -5.45022
upperneck 20.0733 -4.64958 2.42995
head 9.22569 -2.32544 1.13963
rclavicle 1.07344e-014 -3.97569e-015
rhumerus -33.2785 14.2966 -93.8894
rradius 45.7439
rwrist 22.1807
rhand -28.4569 -14.37
rfingers 7.12502
rthumb -1.82721 -44.342
lclavicle 1.07344e-014 -3.97569e-015
lhumerus -41.7276 -23.775 99.358
lradius 29.3056
lwrist -14.827
lhand -35.4439 6.16988
lfingers 7.12502
lthumb -8.5732 35.9758
rfemur 15.2766 -11.2423 20.5717
rtibia 21.4069
rfoot -28.4068 8.45599
rtoes -7.30621
lfemur -16.3428 13.3064 -2.73528
ltibia 57.0191
lfoot -24.4022 -14.0771
ltoes -12.309
22
root 3.27885 16.5519 -34.2031 -6.19219 -7.99491 -4.58866
lowerback 8.99255 0.914826 6.3244
upperback 5.02765 1.69632 3.07129
thorax 0.284847 0.926398 -0.510382
lowerneck -16.4489 -4.02747 -5.63205
upperneck 19.0856 -4.70396 2.69928
head 8.89309 -2.33211 1.2575
rclavicle -1.99779e-014 -1.35174e-014
rhumerus -34.8554 16.363 -94.6826
rradius 50.8908
rwrist 18.5232
rhand -28.0521 -14.3486
rfingers 7.12502
rthumb -1.4362 -44.3236
lclavicle -1.99779e-014 -1.35174e-014
lhumerus -42.4244 -23.6314 99.3357
lradius 29.6541
lwrist -14.2735
lhand -35.3486 6.16944
lfingers 7.12502
lthumb -8.48121 35.9791
rfemur 15.5778 -10.972 20.5366
rtibia 20.7147
rfoot -27.8295 8.48256
rtoes -8.57614
lfemur -16.7959 13.37 -3.14458
ltibia 55.3269
lfoot -24.5811 -13.7296
ltoes -12.1552
